<?xml version="1.0" standalone="no"?>
<!DOCTYPE svg PUBLIC "-//W3C//DTD SVG 20010904//EN"
 "http://www.w3.org/TR/2001/REC-SVG-20010904/DTD/svg10.dtd">
<svg version="1.0" xmlns="http://www.w3.org/2000/svg"
 width="512.000000pt" height="512.000000pt" viewBox="0 0 512.000000 512.000000"
 preserveAspectRatio="xMidYMid meet">

<g transform="translate(0.000000,512.000000) scale(0.100000,-0.100000)"
fill="#000000" stroke="none">
<path d="M944 4219 c-17 -19 -19 -41 -22 -220 l-4 -199 -164 0 c-185 0 -223
-9 -248 -59 -13 -25 -16 -76 -16 -314 l0 -285 -131 -4 -131 -4 -29 -32 c-29
-32 -29 -33 -29 -161 0 -125 1 -129 26 -154 14 -14 35 -27 47 -29 22 -3 22 -6
25 -225 l2 -223 -82 0 c-99 0 -144 -19 -171 -70 -24 -46 -18 -100 27 -234 61
-182 171 -377 298 -531 82 -98 82 -93 -21 -304 -64 -131 -69 -158 -42 -213 41
-86 -172 -78 2076 -78 2184 0 2030 -4 2073 57 37 54 684 1446 689 1482 5 46
-21 98 -66 128 -34 23 -37 23 -388 23 -385 0 -396 -1 -457 -58 -16 -15 -37
-45 -47 -67 l-19 -40 0 234 c0 347 18 331 -388 331 l-281 0 -3 293 c-3 330 -5
337 -75 356 -41 12 -1286 16 -1342 5 -17 -4 -42 -18 -56 -32 l-25 -25 0 -628
0 -629 -120 0 -120 0 2 223 c3 221 3 222 25 225 12 2 34 17 48 33 24 29 25 36
25 155 0 122 0 124 -29 156 l-29 32 -131 4 -131 4 0 280 c0 390 8 378 -264
378 l-166 0 0 179 c0 184 -8 234 -40 251 -31 17 -76 11 -96 -11z m416 -824 l0
-255 -360 0 -360 0 0 255 0 255 360 0 360 0 0 -255z m1280 -170 l0 -255 -260
0 -260 0 0 255 0 255 260 0 260 0 0 -255z m678 -2 l2 -253 -265 0 -265 0 0
255 0 255 263 -2 262 -3 3 -252z m-1638 -283 l0 -40 -440 0 c-427 0 -441 -1
-460 -20 -35 -35 -25 -92 21 -115 23 -12 94 -15 404 -15 l375 0 0 -220 0 -220
-580 0 -580 0 0 219 0 218 45 6 c58 6 85 30 85 74 0 59 -25 73 -135 73 l-95 0
0 40 0 40 680 0 680 0 0 -40z m960 -375 l0 -255 -260 0 -260 0 0 255 0 255
260 0 260 0 0 -255z m678 -2 l2 -253 -265 0 -265 0 0 255 0 255 263 -2 262 -3
3 -252z m672 2 l0 -255 -260 0 -260 0 0 255 0 255 260 0 260 0 0 -255z m970
-149 c0 -2 -303 -649 -433 -923 l-10 -23 -385 0 c-382 0 -386 0 -409 -22 -40
-38 -25 -96 31 -118 17 -6 153 -10 357 -10 181 0 329 -4 329 -9 0 -4 -29 -69
-65 -145 l-65 -136 -1944 0 -1945 0 55 118 c31 64 60 129 66 144 l10 28 1449
2 1448 3 22 22 c27 27 29 75 4 103 -18 20 -28 20 -1480 20 l-1463 0 -18 27
c-10 16 -40 55 -68 88 -70 85 -141 195 -191 300 -42 87 -95 233 -95 261 0 12
299 14 1983 14 l1983 0 51 25 c61 31 101 86 110 152 12 86 0 83 358 83 173 0
315 -2 315 -4z"/>
</g>
</svg>
